<svg xmlns="http://www.w3.org/2000/svg" width="1600" height="900" viewBox="0 0 306 90" preserveAspectRatio="xMidYMid meet" role="img" aria-label="AMIGO logo">
  <rect x="0" y="0" width="306" height="90" fill="#000"/>
  <style>
    .logo-path {
      fill: none;
      stroke: #fff;
      stroke-width: 5.3;
      stroke-linecap: butt;
      stroke-linejoin: miter;
      vector-effect: non-scaling-stroke;
    }
  </style>
    <path class="logo-path letter-a" d="M 12 72 L 27 18 L 43 72 M 17 59 H 31" />
    <path class="logo-path letter-m" d="M 58 72 L 60 18 L 81 56 L 102 18 L 106 72" />
    <path class="logo-path letter-i" d="M 125 18 V 72 M 116 18 H 134 M 116 72 H 134" />
    <path class="logo-path letter-g" d="M 214 31 C 208 22 198 18 187 18 C 169 18 155 31 155 45 C 155 60 169 72 187 72 C 201 72 212 65 217 57 V 48 H 192" />
    <path class="logo-path letter-o" d="M 259 18 C 276 18 290 31 292 45 C 294 58 285 69 272 73 M 252 72 C 237 70 226 59 226 45 C 226 32 237 21 252 18" />
</svg>
